<?xml version="1.0" encoding="UTF-8"?>
<!DOCTYPE svg PUBLIC "-//W3C//DTD SVG 1.0//EN" "http://www.w3.org/TR/2001/REC-SVG-20010904/DTD/svg10.dtd">
<!-- Creator: CorelDRAW 2018 -->
<svg xmlns="http://www.w3.org/2000/svg" xml:space="preserve" width="176.473mm" height="108.139mm" version="1.0" style="shape-rendering:geometricPrecision; text-rendering:geometricPrecision; image-rendering:optimizeQuality; fill-rule:evenodd; clip-rule:evenodd"
viewBox="0 0 14891.36 9125.15"
 xmlns:xlink="http://www.w3.org/1999/xlink">
 <defs>
  <style type="text/css">
   <![CDATA[
    .fil1 {fill:none}
    .fil2 {fill:#FEFEFE}
    .fil0 {fill:#EFAE35}
    .fil3 {fill:#FEFEFE;fill-rule:nonzero}
   ]]>
  </style>
    <clipPath id="id0">
     <path d="M-0 0l14891.36 0 0 9125.15 -14891.36 0 0 -9125.15z"/>
    </clipPath>
 </defs>
 <g id="Layer_x0020_1">
  <metadata id="CorelCorpID_0Corel-Layer"/>
  <g id="_724501416">
   <g>
   </g>
   <g style="clip-path:url(#id0)">
    <g id="_724502736">
     <path class="fil0" d="M-24.97 8.9l0 9248.9 9217.24 -60.34c1117.13,-1589.31 1326.14,-3150.18 718.88,-4353.98l1058.84 -2456.1c124.79,-289.45 -517.06,-112.1 -744.01,-296.15 34.99,-293.47 -191.54,-1704.82 -360.71,-2082.32l-9890.24 0z"/>
    </g>
   </g>
   <polygon class="fil1" points="-0,0 14891.36,0 14891.36,9125.15 -0,9125.15 "/>
   <g id="_724501680">
    <path class="fil2" d="M4995.61 7147.05c-51.58,0.74 -47.25,15.71 -40.76,-20.75l-45.18 -24.29c-75.53,1.72 -27.35,3.54 -41.16,-26.54 -40.52,6.84 -34.33,16.2 -28.07,-18.71 -78.1,-1.43 -26.9,2.3 -39.52,-27.82 -40.58,7.43 -32.66,14.62 -23.28,-21.96 -40.44,6.94 -32.6,14.04 -22.42,-22.2 -41.36,4.96 -34.99,13.32 -22.64,-22.29 -40.21,6.74 -32.03,13.75 -22.72,-22.56 -40.43,6.87 -32.55,13.92 -22.28,-22.31 -41.31,4.87 -34.92,13.2 -22.57,-22.38 -40.19,6.88 -31.93,13.8 -22.67,-22.58 -40.3,6.87 -32.27,13.8 -22.13,-22.44 -42.5,4.95 -35.15,12.45 -19.91,-24 -28.77,-14.58 -25.31,38.05 -25.3,-40.74 -41.31,4.22 -31.86,10.53 -17.74,-26.16 -29.58,-14.13 -29.91,27.01 -23.73,-41.49 -41.37,2.37 -29.02,7.81 -13.27,-30.49 -33.31,-10.01 -32.65,30.83 -24.59,-40.5 -32.51,-14.35 -30.57,23.41 -22.78,-42.75 -28.28,-27.04 -25.91,0.47 -18.24,-67.09 -31.32,-12.59 -30.38,26.27 -22.45,-42.65 -42.44,-28.96 -34.01,-20.07 -20.24,-85.88 -38.7,-30.99 -28.18,-27.33 -15.75,-89.64 -18.17,-16.91 -25.37,2.31 -28.72,-81.42 -1,-25.14 5.7,-80.03 7.12,-108.95 8.8,-179.61 0.84,-147.98 39.04,-167.15 -3.05,-63.46 -18.02,-80.86 30.21,-105.34 -3.06,-27.15 -26.32,-70.81 27.37,-62.78 -2.62,-30.01 -24.44,-72.81 28.4,-61.58 -2.47,-27.2 -24.77,-75.47 25.23,-65.05 -4.6,-68.98 -10.88,-31.79 28.31,-38.28 -9.45,-38.45 -19.7,-33.13 21.38,-24.14l24.04 -44.74c-5.71,-71.24 -7.43,-30.27 26.74,-39.49 -8.44,-37.67 -19.53,-32.87 19.76,-25.69 5.04,-76.21 -2.78,-27.69 30.06,-37.27 -10,-37.77 -19.23,-31.89 21.77,-22.82 -6.21,-36.94 -14.13,-29.8 25.82,-19.26 -7.51,-37.53 -16.13,-31.06 24.28,-20.94 -7.44,-36.64 -15.87,-30.01 23.9,-21.25 -6.3,-36.93 -14.02,-29.58 26.07,-18.99 -7.43,-37.55 -16.13,-31.15 24.21,-21.03 -7.63,-36.99 -15.66,-30.05 24.58,-20.34 14.65,-30.35 -40,-30.5 41.61,-25.06 -4.36,-33.96 -9.54,-23.04 31.65,-14.77 -6.01,-37.15 -13.88,-30.03 26.06,-18.69 14.11,-31.47 -39.08,-29.94 41.04,-25.83l48.48 -19.02 49.4 -18.31 47.35 -20.78 48.65 -18.84c17.86,-14.46 -21.07,-28.78 70.33,-19.91 21.46,-11.97 -13.28,-6.05 54.28,-20.61 90.59,-19.52 -20.72,-4.77 42.42,3.82 15.24,-8.62 -6.9,-20.58 79.29,-27.68l89.56 15.95 48.82 -17.08c420.82,33.27 731.62,196.36 914.81,417.44 463.97,559.9 239.32,1393.28 -422.98,1665.96 -420.85,173.28 -646.07,146.06 -1060.93,-21.84zm-4552.66 -1249.68c14.11,-270.14 237.4,-572.46 394.83,-699.62 474.82,-383.56 1205,-351.54 1608.5,43.19 382.23,373.93 444.44,901.53 168.86,1339.54 -592.72,942.09 -2238.1,579.73 -2172.19,-683.11zm5988.76 -868.03l-5.99 57.83 -51.47 -9.92c-57.88,-5.7 -56.01,11.14 -37.45,-30.93 -76.11,-12.73 -143.64,-60.57 -231.29,-95.61 -391.18,-156.35 -678.68,-73.54 -804.5,-92.15 -24.36,15.32 -4.35,11.33 -52.96,21.37 -73.08,15.08 17.15,5.16 -44.67,-5.93 -37.12,38.33 69.88,20.51 -71.74,32.64 -82.43,38.64 -156.87,59.6 -249.66,104.59 -51.42,24.94 -70.21,35.69 -115.78,64.95 -84.3,54.09 -11.72,36.65 -104.5,46.46l-138.95 139.12c-4.08,4.14 -29.9,28.9 -34.2,33.32l-216.25 305.7c-51.08,112.81 -87.42,204.52 -109.18,346.34 -24.42,159.17 -33.23,272.04 -4.51,418.28 57.13,290.92 182.2,556.17 465.84,768.48 310.17,232.18 402.43,210.33 759.42,302.94 -31.16,108.79 -210.57,234.5 -321.07,318.58 -104.83,79.76 -264.73,174.37 -401.42,231.05 -599.06,248.37 -783.47,132.66 -1100.73,183.35 -125.95,-55.04 -593.76,-24.33 -1156.15,-312.89 -211.47,-108.53 -660.19,-382.75 -739.17,-575.98 251.23,-72.28 645.55,-8.5 1066.12,-493.76 860.73,-993.14 -214.48,-2405.3 -1503.99,-2055.82 -98.34,26.65 -180.37,90.73 -283.21,86.43 -46.01,-111.54 -267.49,-2173.13 -250.22,-2353.77 227.87,-133.54 892.47,-262.74 1209.63,-324.8 261.01,-51.07 1139.43,-176.46 1408.42,-120.86 42.9,-34.92 -12.52,-7.97 52.22,-24.88 67.4,-17.6 -31.94,0.13 41.74,-6.86 148.12,-14.04 1150.12,64.39 1308.83,92.26l142.24 34.14c3.81,-5.03 12.84,4.68 18.35,8.37 39.46,-4.19 63.66,-10.22 111.34,-1.56 86.43,15.7 35.4,0.93 74.7,31.71 48.85,-5.03 26.72,-10.76 87.45,1.16 54.89,10.77 26.82,5.75 52.44,24.83 45.09,-2.06 36.28,-7.06 88.53,4.45 53.84,11.85 24.94,4.41 54.68,25.77 46.84,-6.44 -18.8,-14.94 65.18,-3.86 48.94,6.46 33.17,11.8 53.27,24.77 26.5,-0.73 23.15,-5.95 63.57,1.66 45.9,8.63 32.73,12.29 51.41,24.42 27.5,0.3 29.2,-4.31 65.35,4.07 50.82,11.78 26.23,9.05 52.65,28.09 161.8,-17.09 952.22,257.16 1138.42,321.92 6.84,142.78 -247.12,1583.71 -293.09,1818.11l-109.61 602.44zm-2683.94 -3215.97c-7.41,-46.74 -14.38,6.28 -3.27,-64.96 6.58,-42.28 6.67,-31.27 26.54,-47.17 -0.07,-27.6 -2.78,-48.92 4.2,-80.34 15.64,-70.47 16.29,-36.19 24.35,-48.73 -4.77,-157.04 15.19,-99.19 20.93,-133.53 1.49,-8.97 7.15,-9.97 10.77,-14.94 -0.86,-161.05 16.43,-96.4 22.57,-132.55 1.47,-8.64 7.16,-9.55 10.79,-14.29l34.52 -190.82c-2.57,-95.06 -9.78,-168.24 36.39,-231.4 44.8,41.9 51.78,-84.3 18.09,151.5 -7.54,52.85 -6.45,117.34 -8.22,171.53 -3.48,106.7 -6.3,216.3 -15.21,320.88 7.96,12.59 13.59,9.24 19.86,44.89 2.03,11.56 1.45,48.79 1.05,61.83 -1.14,37.31 -6.34,74.65 -10.64,110.2 1.86,2.69 35.1,-29.17 23.72,63.26 -12.31,99.9 -1.71,43.99 -46.52,60.32l-154.31 -5.1c-44.31,-18 -55.57,-3.16 -15.61,-20.58zm428.02 -1172.14c12.06,38.56 20.51,31.79 -22.34,22.86 -17.87,52.52 22.91,23.68 -26.16,52.3l-50.19 5.94c-2.55,8.84 6,69.04 -59.12,28.87 -11.62,8.22 14.01,34.58 -72.77,25.91 -93.91,-9.38 -29.32,-0.95 -51.31,-35.84 -261.39,-110.23 41,-419.86 240.73,-306.74 77.54,20.58 44.21,1.05 44.34,36.63 13.77,2.31 65.87,-25.58 28.57,59.83 7.59,6.88 51.42,-35.57 12.61,63.1 -40.04,101.76 3.36,13.87 -44.36,47.14zm-3252.67 6478.62c65.87,21.21 280.24,97.84 343.61,106.93 190.33,27.31 210.49,60.71 293.98,157.75 67.51,78.47 134.42,146.74 212.12,214.14l242.75 204.74c80.22,82 351.27,216.85 493.2,275.08 100.75,41.34 198.6,72.22 296.33,105.01 93.02,31.21 256.48,48.33 314.52,76.95 353.68,51.7 1047.56,280.77 1866.29,-265.75 120.44,-80.4 380.69,-284.6 482.66,-398.52 63.18,-70.56 64.93,-131.69 160.31,-152.59 88.45,-19.38 161.19,-3.49 265.3,-27.35 96.63,-22.14 143.74,-34.88 229.09,-68.38 846.27,-332.17 1160.32,-1323.21 519.88,-2041.88 -53,-59.47 -101.98,-81.67 -73.41,-181.69l227.73 -973.4c32.13,-164.54 38.1,-370.52 85.32,-525.36 18.34,-60.18 131.98,-1036.1 127.17,-1062.6 -123.22,-144.57 -1045.14,-390.27 -1319.2,-469.65 -490.59,-142.11 -1037.7,-199.75 -1612.55,-249.2 -2.08,-152.66 -43.95,-226.24 -29.86,-511.92 11.26,-228.37 -16.99,-435.12 89.24,-512.76 4.14,-5.14 9.17,-11.97 12.36,-15.46 3.08,-3.37 8.51,-10.76 12.34,-14.7 142.26,-145.98 204.94,-141.92 64.07,-420.73 -433.23,-214.51 -751.42,289.72 -401.34,475.96 -30.75,163.86 -155.25,874.13 -215.75,961.65l-855.3 53.16c-279.08,24.67 -545.43,62.72 -813.29,112.51 -353.4,65.69 -1145.42,283.9 -1392.77,436.03 -24.81,310.4 68.5,1662.76 153.99,2081.9 103.67,508.26 65.06,444.4 -87.75,575.6 -284.11,243.92 -483.85,674.67 -402.49,1157.51 64.9,385.22 393.16,758.47 711.45,897z"/>
    <path class="fil2" d="M2015.59 7803.41l-242.75 -204.74c-77.7,-67.4 -144.62,-135.67 -212.12,-214.14 -83.5,-97.04 -103.65,-130.45 -293.98,-157.75 -63.37,-9.09 -277.74,-85.72 -343.61,-106.93l60.45 42.41c322.56,149.19 435.65,36.45 563.66,232.88l207.61 217.83c148.8,127.1 93.57,107.77 260.74,190.44z"/>
    <path class="fil3" d="M8251.8 7363.51l-463.42 0 0 -3190.88 497.33 0 0 1138.64c210.05,-206.49 477.55,-309.73 803.44,-309.73 179.91,0 351.33,28.23 512.4,85.42 161.06,57.19 292.94,138.15 397.48,241.4 103.61,103.99 185.56,228.76 243.96,375.09 59.33,145.58 88.53,302.29 88.53,468.67 0,395.15 -124.33,701.17 -372.05,916.56 -248.65,216.14 -546.3,323.84 -893.86,323.84 -345.68,0 -616.94,-113.64 -813.8,-340.17l0 291.16zm-5.65 -1173.55c0,276.3 48.04,476.11 143.16,599.4 156.36,201.29 367.35,302.3 633.9,302.3 217.58,0 405.01,-74.27 562.32,-222.82 158.23,-148.56 237.35,-369.89 237.35,-664.03 0,-301.56 -75.35,-523.64 -227,-666.99 -151.64,-143.35 -335.32,-215.41 -550.07,-215.41 -217.58,0 -405.02,74.28 -562.32,222.83 -158.24,148.55 -237.35,363.21 -237.35,644.71zm2691.02 -1571.67l0 -445.65 497.32 0 0 445.65 -497.32 0zm0 2745.22l0 -2312.94 497.32 0 0 2312.94 -497.32 0zm3148.78 0l0 -293.39c-185.55,228.03 -458.71,342.41 -819.46,342.41 -233.58,0 -448.34,-50.5 -643.32,-152.26 -195.9,-101.02 -347.56,-242.88 -455.87,-424.11 -107.37,-181.98 -161.07,-390.69 -161.07,-626.89 0,-230.25 48.98,-438.96 146,-626.88 97.96,-187.17 243.95,-331.27 438.93,-430.8 194.03,-100.26 412.55,-150.03 652.74,-150.03 177.08,0 334.37,29.71 471.9,88.39 137.52,58.67 249.6,135.92 336.25,230.25l0 -1147.55 497.33 0 0 3190.88 -463.42 0zm-1571.1 -1153.5c0,295.62 79.13,516.21 238.3,662.54 158.24,146.32 345.68,219.11 561.38,219.11 217.58,0 402.2,-69.82 554.79,-209.46 151.65,-139.64 227.94,-352.81 227.94,-639.52 0,-314.93 -77.23,-546.67 -232.64,-694.47 -154.48,-147.81 -345.68,-221.34 -572.68,-221.34 -221.35,0 -405.96,70.56 -554.79,212.43 -147.87,141.87 -222.29,365.43 -222.29,670.7z"/>
    <path class="fil3" d="M11930.12 8795.48l0 -867.49 106.62 0 0 867.49 -106.62 0zm682.32 -78.75c-39.58,33.73 -77.74,57.35 -114.29,71.29 -36.55,13.93 -75.73,20.79 -117.72,20.79 -69.07,0 -122.17,-16.76 -159.32,-50.48 -37.16,-33.53 -55.74,-76.54 -55.74,-128.84 0,-30.69 7.06,-58.76 21,-84.2 14.13,-25.45 32.5,-45.64 55.13,-60.98 22.82,-15.35 48.26,-27.06 76.73,-34.93 21,-5.45 52.71,-10.71 94.91,-15.96 86.02,-10.09 149.63,-22.41 190.22,-36.55 0.41,-14.54 0.61,-23.83 0.61,-27.67 0,-43.21 -10.09,-73.7 -30.29,-91.47 -27.26,-24.03 -67.85,-35.95 -121.56,-35.95 -50.28,0 -87.44,8.89 -111.27,26.45 -24.02,17.57 -41.59,48.67 -53.1,93.5l-104.2 -14.54c9.48,-44.63 25.04,-80.77 46.84,-108.24 21.81,-27.46 53.31,-48.46 94.51,-63.41 40.99,-14.74 88.85,-22.21 142.96,-22.21 53.72,0 97.54,6.26 131.26,18.99 33.52,12.72 58.36,28.47 74.11,47.65 15.75,19.18 26.86,43.42 33.32,72.7 3.43,18.18 5.25,50.88 5.25,97.94l0 141.35c0,98.75 2.22,161.14 6.67,187.59 4.24,26.45 13.12,51.69 26.05,75.93l-111.47 0c-10.7,-22.41 -17.57,-48.66 -20.6,-78.75zm-8.48 -236.26c-38.77,15.75 -96.92,29.08 -174.46,39.98 -44.02,6.26 -75.12,13.33 -93.29,21.21 -18.18,7.87 -32.11,19.38 -42.01,34.33 -9.89,15.15 -14.94,31.91 -14.94,50.48 0,28.07 10.7,51.7 32.3,70.48 21.61,18.78 53.11,28.27 94.51,28.27 40.98,0 77.54,-8.89 109.65,-26.85 31.91,-17.77 55.53,-42.21 70.47,-73.1 11.51,-24.03 17.16,-59.37 17.16,-106.01l0.61 -38.77zm271.6 315.01l0 -628.82 95.72 0 0 89.26c46.04,-68.46 112.68,-102.58 199.71,-102.58 37.96,0 72.7,6.87 104.4,20.4 31.7,13.53 55.53,31.5 71.28,53.52 15.75,22.01 26.86,48.26 33.12,78.54 3.84,19.8 5.86,54.33 5.86,103.6l0 386.09 -106.62 0 0 -382.05c0,-43.42 -4.04,-75.93 -12.32,-97.33 -8.28,-21.41 -23.02,-38.57 -44.02,-51.49 -20.99,-12.73 -45.84,-19.19 -74.11,-19.19 -45.23,0 -84.21,14.34 -117.12,43.21 -32.91,28.67 -49.27,83.4 -49.27,163.77l0 343.08 -106.62 0zm1084.57 -230.2l104.2 14.54c-11.51,71.68 -40.59,127.61 -87.63,168.2 -47.05,40.59 -105.01,60.78 -173.46,60.78 -85.83,0 -154.89,-28.07 -206.98,-84.2 -52.3,-56.14 -78.35,-136.51 -78.35,-241.11 0,-67.85 11.31,-127.01 33.73,-177.91 22.41,-50.68 56.54,-88.85 102.58,-114.09 45.84,-25.44 95.72,-38.17 149.83,-38.17 68.06,0 123.98,17.16 167.2,51.69 43.42,34.53 71.29,83.6 83.4,147l-102.99 15.75c-9.89,-42.2 -27.26,-73.91 -52.5,-95.31 -25.04,-21.21 -55.32,-31.91 -90.86,-31.91 -53.72,0 -97.34,19.18 -131.06,57.55 -33.52,38.57 -50.28,99.15 -50.28,182.34 0,84.41 16.15,145.59 48.46,183.75 32.51,38.17 74.71,57.36 126.61,57.36 42,0 76.93,-12.73 104.8,-38.37 28.07,-25.44 45.84,-64.82 53.3,-117.93zm623.97 26.65l110.26 14.54c-17.16,64.01 -49.27,113.89 -96.12,149.23 -46.85,35.34 -106.62,53.1 -179.52,53.1 -91.67,0 -164.37,-28.27 -218.08,-84.81 -53.72,-56.34 -80.58,-135.7 -80.58,-237.67 0,-105.41 27.06,-187.39 81.38,-245.55 54.33,-58.36 124.79,-87.44 211.42,-87.44 83.8,0 152.26,28.47 205.36,85.62 53.11,57.15 79.77,137.52 79.77,241.11 0,6.26 -0.2,15.75 -0.61,28.27l-468.28 0c4.03,68.86 23.42,121.77 58.56,158.32 34.93,36.55 78.75,54.93 131.05,54.93 38.98,0 72.29,-10.3 99.76,-30.9 27.66,-20.6 49.47,-53.51 65.62,-98.75zm-348.93 -170.83l350.15 0c-4.65,-52.9 -18.18,-92.48 -40.19,-118.93 -33.72,-40.99 -77.74,-61.59 -131.65,-61.59 -48.87,0 -89.86,16.35 -123.17,49.07 -33.12,32.72 -51.5,76.53 -55.13,131.45z"/>
   </g>
  </g>
 </g>
</svg>
